<svg width="50" height="54" viewBox="0 0 50 54" fill="none" xmlns="http://www.w3.org/2000/svg">
<path d="M18.9716 40.6628L16.0465 41.9592C10.1065 43.4581 7.13347 44.2075 5.53146 42.6294C3.92945 41.0539 4.75745 38.1984 6.41647 32.482L6.84247 31.005C7.31347 29.3776 7.55048 28.568 7.43348 27.7611C7.31348 26.957 6.85447 26.2486 5.93646 24.8345L5.10246 23.549C1.87143 18.5683 0.257416 16.0793 1.33143 14.0963C2.41143 12.1161 5.46846 11.9547 11.5855 11.6347L13.1665 11.5526C14.9065 11.4596 15.7735 11.4159 16.5326 11.0466C17.2886 10.6774 17.8496 10.0291 18.9716 8.7272L19.9916 7.54562C23.9396 2.96972 25.9136 0.683134 28.1816 1.03597C30.4497 1.3888 31.5117 4.14583 33.6327 9.66262L34.1817 11.0904C34.7847 12.6576 35.0877 13.4426 35.6727 14.017C36.2607 14.5968 37.0647 14.9032 38.6757 15.5131L40.1428 16.0711C45.8128 18.2209 48.6478 19.2985 48.9688 21.4949C49.2448 23.3712 47.5378 25.0041 44.0488 27.7584" stroke="#5E54DD" stroke-width="2"/>
<path d="M34.7574 24.7687C31.7963 21.5413 30.3173 19.9275 28.6133 20.1737C26.9123 20.4226 26.1173 22.37 24.5273 26.2649L24.1133 27.2714C23.6633 28.3791 23.4353 28.9316 22.9943 29.3392C22.5563 29.7467 21.9503 29.9628 20.7443 30.3949L19.6432 30.786C15.3922 32.3041 13.2652 33.0644 13.0222 34.6153C12.7792 36.1661 14.5822 37.4844 18.1852 40.1156L19.1152 40.7994C20.1412 41.5461 20.6542 41.9208 20.9483 42.4323C21.2483 42.9438 21.2933 43.5373 21.3863 44.7216L21.4733 45.7993C21.8033 49.9649 21.9713 52.0491 23.5223 52.7602C25.0733 53.4714 26.9843 52.3363 30.8033 50.0716L31.7903 49.4835C32.8763 48.8408 33.4194 48.518 34.0404 48.425C34.6644 48.3348 35.3004 48.4852 36.5634 48.7861L37.7184 49.0596C42.1734 50.1153 44.4024 50.646 45.6055 49.5327C46.8085 48.4195 46.1845 46.4037 44.9424 42.3667L44.6184 41.3273C44.2674 40.1785 44.0904 39.6042 44.1774 39.038C44.2674 38.4691 44.6124 37.9713 45.2995 36.9702L45.9295 36.0621C48.3505 32.5475 49.5595 30.7915 48.7495 29.3939C47.9425 27.9962 45.6505 27.8813 41.0634 27.657L39.8754 27.5969C38.5734 27.534 37.9194 27.5011 37.3524 27.2413C36.7824 26.9815 36.3624 26.522 35.5224 25.6029L34.7574 24.7687Z" stroke="#5E54DD" stroke-width="2"/>
</svg>
